<svg width="60" height="61" viewBox="0 0 60 61" fill="none" xmlns="http://www.w3.org/2000/svg">
<rect y="0.5" width="60" height="60" rx="30" fill="black"/>
<path d="M42.086 18.9828C40.2266 19.6664 17.2852 28.4766 16.9461 28.6406C15.825 29.1711 15.6938 29.8711 16.6289 30.3469C16.7219 30.3961 18.2695 30.8883 20.0797 31.4516L23.3664 32.4742L30.8258 27.8039C34.9328 25.2391 38.3727 23.1063 38.4711 23.0735C38.7281 22.9859 38.9469 22.9914 39.0453 23.0953C39.1164 23.1664 39.1219 23.1992 39.0617 23.3031C39.0289 23.3742 36.3 25.8516 33.0078 28.8047C29.7156 31.7633 27.0086 34.2024 26.9977 34.2297C26.9867 34.257 26.8774 35.7336 26.7516 37.511L26.5219 40.7375L26.7735 40.7047C26.9102 40.6883 27.1235 40.6172 27.2492 40.5461C27.3805 40.4805 28.2336 39.7039 29.1578 38.8235C30.0766 37.943 30.8641 37.2047 30.9024 37.1938C30.9406 37.1774 32.4063 38.2164 34.1617 39.5016C35.9117 40.7867 37.4813 41.8969 37.6508 41.9735C38.0938 42.1813 38.586 42.1977 38.9086 42.0281C39.1985 41.875 39.4774 41.4922 39.5977 41.093C39.6414 40.9399 40.6477 36.3078 41.8235 30.8008C43.7867 21.6352 43.9672 20.7492 43.9672 20.2734C43.9672 19.825 43.9508 19.7156 43.8305 19.4805C43.7485 19.311 43.6008 19.1414 43.4586 19.043C43.136 18.8188 42.6 18.7914 42.086 18.9828Z" fill="white"/>
</svg>
