<svg width="60" height="61" viewBox="0 0 60 61" fill="none" xmlns="http://www.w3.org/2000/svg">
<rect y="0.5" width="60" height="60" rx="30" fill="black"/>
<path d="M26.2703 22.6468C26.1281 22.6851 25.9695 22.7507 25.9148 22.789C25.6852 22.964 25.4445 23.2101 25.3734 23.3413C25.2805 23.5218 25.3297 23.571 25.6797 23.664C26.2211 23.8116 26.5766 24.096 26.7734 24.5609C26.9648 25.0148 27.0633 26.1741 27.025 27.5468C26.9812 29.1765 26.8391 29.8491 26.4891 30.1445C26.0188 30.5437 25.3844 30.057 24.3289 28.4765C23.5469 27.3007 22.8523 26.0101 22.1195 24.3476C21.7859 23.5874 21.5289 23.2757 21.1516 23.1718C20.982 23.1281 20.2547 23.1171 18.6906 23.1281C16.2297 23.1445 16.1969 23.1499 16.0547 23.4945C15.9508 23.7515 16.0219 23.9866 16.5305 25.0859C18.0289 28.3234 19.4289 30.8226 20.8891 32.8788C23.443 36.4827 25.893 38.0741 29.3438 38.3749C30.5469 38.4788 31.5203 38.4241 31.8977 38.2273C32.2039 38.0687 32.2969 37.8335 32.3844 36.9968C32.4719 36.1109 32.5375 35.821 32.7453 35.3781C33.0242 34.782 33.4508 34.5906 33.9703 34.8148C34.1781 34.9077 34.4187 35.121 35.0312 35.7663C36.8195 37.6366 37.0492 37.8499 37.5523 38.0906C37.8477 38.2327 38.1539 38.3312 38.4055 38.3695C38.9031 38.446 43.0812 38.4515 43.3383 38.3749C43.9398 38.2054 44.1367 37.4945 43.7867 36.7781C43.4312 36.0616 42.7859 35.296 41.2328 33.7538C40.418 32.939 39.6797 32.1679 39.5922 32.0421C39.3844 31.7195 39.3789 31.3531 39.5758 30.9374C39.6523 30.7734 40.3414 29.7999 41.1016 28.7773C42.6602 26.6827 43.1687 25.9335 43.5242 25.2226C44.0383 24.189 44.1148 23.6695 43.7922 23.3851C43.5187 23.139 43.2563 23.1171 40.5656 23.1171C38.2195 23.1171 38.05 23.1281 37.8367 23.2265C37.5523 23.3523 37.4758 23.4726 37.0492 24.4843C36.1633 26.557 35.1953 28.2249 34.1617 29.4335C33.6805 30.0023 33.3906 30.2265 33.1391 30.2265C32.8438 30.2265 32.5594 29.9312 32.3898 29.439C32.3516 29.3296 32.3188 28.2031 32.3023 26.3437C32.2695 23.5109 32.2641 23.4124 32.1547 23.1663C32.0289 22.8984 31.843 22.7343 31.5367 22.6359C31.2633 22.5429 26.6203 22.5538 26.2703 22.6468Z" fill="white"/>
</svg>
