<svg width="60" height="61" viewBox="0 0 60 61" fill="none" xmlns="http://www.w3.org/2000/svg">
<rect y="0.5" width="60" height="60" rx="30" fill="black"/>
<path d="M28.9884 16.5082C26.8721 16.7108 25.2767 17.1707 23.5442 18.0631C20.9015 19.4319 18.7687 21.6055 17.4474 24.2773C16.9375 25.3011 16.7018 25.9307 16.4331 26.9381C16.1042 28.2083 16.0055 28.9803 16 30.3819C16 31.0827 16.0274 31.8383 16.0658 32.1339C16.3673 34.3787 17.0691 36.3114 18.2479 38.1181L18.6426 38.7258L17.7709 41.2936C17.2884 42.7116 16.9046 43.8724 16.9156 43.8833C16.9266 43.8943 18.1218 43.522 19.5802 43.0566C21.0386 42.5912 22.2502 42.2079 22.2777 42.2079C22.2996 42.2079 22.5244 42.3339 22.7766 42.4926C23.0288 42.6459 23.5551 42.9306 23.9444 43.1168C27.4917 44.8086 31.5434 44.9564 35.1729 43.5165C39.2849 41.8904 42.4429 38.3262 43.5724 34.0447C43.9178 32.7307 44 32.0135 44 30.4914C44 28.9694 43.9178 28.2521 43.5724 26.9381C42.2455 21.9175 38.2158 18.0138 33.1279 16.8258C32.2726 16.6287 31.3844 16.5246 30.3043 16.5082C29.7012 16.4973 29.1091 16.4973 28.9884 16.5082ZM25.644 23.0016C25.7372 23.0509 25.8633 23.1823 25.9291 23.3027C26.0881 23.5929 27.4259 26.7958 27.4643 26.9929C27.5136 27.2392 27.2669 27.6608 26.7241 28.274C26.1539 28.9146 26.0333 29.1172 26.0826 29.3471C26.1758 29.7632 27.4423 31.4441 28.2264 32.1832C29.438 33.3275 31.2692 34.417 32.0862 34.4772C32.5083 34.5046 32.6564 34.3896 33.3033 33.5355C33.5939 33.1468 33.9009 32.7581 33.9941 32.6705C34.2025 32.4569 34.515 32.4131 34.8714 32.5445C35.3209 32.7143 38.0787 34.0556 38.2761 34.2035L38.4625 34.3403L38.4296 34.9207C38.3528 36.4099 37.8265 37.1819 36.4449 37.8553C35.129 38.4959 34.0983 38.4795 32.0862 37.7841C29.3777 36.8479 27.9467 35.9555 26.0004 34.0009C25.0245 33.0263 24.3337 32.1996 23.5442 31.0663C22.2393 29.2048 21.7404 27.7648 21.8884 26.303C22.009 25.1314 22.4202 24.2663 23.2481 23.4396C23.6483 23.0399 24.1692 22.8757 24.9587 22.903C25.2931 22.914 25.5398 22.9468 25.644 23.0016Z" fill="white"/>
</svg>
